<svg id="Layer_1" data-name="Layer 1" xmlns="http://www.w3.org/2000/svg" viewBox="0 0 147.89 843.15"><defs><style>.cls-1,.cls-2{fill:#fff;}.cls-1{opacity:0.37;}</style></defs><path class="cls-1" d="M970.32,440.85s-56,142.24-23.09,235.4C947.23,676.25,1034.53,536.28,970.32,440.85Z" transform="translate(-886.22 -109.41)"/><path class="cls-1" d="M945.11,400.41s-27,139,25,224h36.11v-224Z" transform="translate(-886.22 -109.41)"/><path class="cls-2" d="M976.11,109.41s-132,154.59,0,339.8c0,0,42,74.56,0,164.38,0,0-123.31,209.12-2.66,339h60.66V109.41Z" transform="translate(-886.22 -109.41)"/><path class="cls-1" d="M886.22,109.41h89.89s-37,50-41.43,75.08C934.68,184.49,903.32,154.41,886.22,109.41Z" transform="translate(-886.22 -109.41)"/><path class="cls-1" d="M931.73,882.27l-45,70.29h86.72S946.35,931.12,931.73,882.27Z" transform="translate(-886.22 -109.41)"/></svg>